<svg width="24" height="24" viewBox="0 0 24 24" fill="none" xmlns="http://www.w3.org/2000/svg">
<path fill-rule="evenodd" clip-rule="evenodd" d="M15.0001 13.414L18.5354 16.95C18.723 17.1376 18.9774 17.243 19.2427 17.243C19.508 17.243 19.7625 17.1376 19.9501 16.95C20.1377 16.7624 20.243 16.5079 20.243 16.2426C20.243 15.9773 20.1377 15.7229 19.9501 15.5353L16.4134 12L19.9494 8.46465C20.0422 8.37176 20.1159 8.26149 20.1661 8.14015C20.2163 8.0188 20.2422 7.88875 20.2421 7.75741C20.2421 7.62608 20.2162 7.49604 20.1659 7.37471C20.1156 7.25339 20.0419 7.14316 19.9491 7.05032C19.8562 6.95747 19.7459 6.88383 19.6246 6.8336C19.5032 6.78337 19.3732 6.75753 19.2418 6.75756C19.1105 6.75759 18.9805 6.78349 18.8591 6.83378C18.7378 6.88407 18.6276 6.95776 18.5347 7.05065L15.0001 10.586L11.4647 7.05065C11.3725 6.9551 11.2622 6.87886 11.1402 6.8264C11.0183 6.77393 10.8871 6.74628 10.7543 6.74507C10.6215 6.74385 10.4898 6.76909 10.3669 6.81931C10.244 6.86954 10.1323 6.94374 10.0383 7.03759C9.94441 7.13143 9.8701 7.24305 9.81976 7.36592C9.76942 7.48879 9.74406 7.62046 9.74515 7.75324C9.74624 7.88602 9.77377 8.01725 9.82612 8.13928C9.87847 8.26131 9.9546 8.37169 10.0501 8.46398L13.5867 12L10.0507 15.5353C9.86313 15.7229 9.75774 15.9773 9.75774 16.2426C9.75774 16.5079 9.86313 16.7624 10.0507 16.95C10.2383 17.1376 10.4928 17.243 10.7581 17.243C11.0234 17.243 11.2778 17.1376 11.4654 16.95L15.0001 13.4133V13.414Z" fill="#DADADA"/>
</svg>
