<svg width="16" height="16" viewBox="0 0 16 16" fill="none" xmlns="http://www.w3.org/2000/svg">
<g clip-path="url(#clip0_39_1161)">
<path d="M7.00147 3.15496C7.07576 3.22899 7.1347 3.31696 7.17492 3.41382C7.21514 3.51068 7.23585 3.61453 7.23585 3.71941C7.23585 3.82429 7.21514 3.92814 7.17492 4.025C7.1347 4.12186 7.07576 4.20983 7.00147 4.28387L3.58221 7.70312L13.3439 7.70312C13.5553 7.70312 13.758 7.78708 13.9074 7.93652C14.0568 8.08597 14.1408 8.28865 14.1408 8.5C14.1408 8.71134 14.0568 8.91403 13.9074 9.06347C13.758 9.21292 13.5553 9.29687 13.3439 9.29687L3.58221 9.29687L7.00147 12.7175C7.15117 12.8672 7.23527 13.0702 7.23527 13.2819C7.23527 13.4936 7.15117 13.6967 7.00147 13.8464C6.85177 13.9961 6.64873 14.0802 6.43702 14.0802C6.2253 14.0802 6.02226 13.9961 5.87256 13.8464L1.09131 9.06512C1.01702 8.99108 0.958077 8.90311 0.917857 8.80625C0.877637 8.70939 0.856934 8.60554 0.856934 8.50066C0.856934 8.39578 0.877637 8.29193 0.917857 8.19507C0.958077 8.09821 1.01702 8.01024 1.09131 7.93621L5.87256 3.15496C5.94659 3.08067 6.03456 3.02172 6.13143 2.9815C6.22829 2.94128 6.33214 2.92058 6.43702 2.92058C6.5419 2.92058 6.64574 2.94128 6.74261 2.9815C6.83947 3.02172 6.92744 3.08067 7.00147 3.15496Z" fill="#5832DD"/>
</g>
<defs>
<clipPath id="clip0_39_1161">
<rect width="16" height="16" fill="white"/>
</clipPath>
</defs>
</svg>
