<svg width="14" height="14" viewBox="0 0 14 14" fill="none" xmlns="http://www.w3.org/2000/svg">
<g clip-path="url(#clip0_39_964)">
<path fill-rule="evenodd" clip-rule="evenodd" d="M7 1.16667C8.39239 1.16667 9.72774 1.71979 10.7123 2.70436C11.6969 3.68892 12.25 5.02428 12.25 6.41667C12.25 8.20983 11.2723 9.6775 10.2422 10.7304C9.72738 11.2507 9.16579 11.7225 8.5645 12.1398L8.316 12.3089L8.19933 12.3865L7.97942 12.5265L7.78342 12.6461L7.54075 12.7873C7.37596 12.881 7.18961 12.9304 7 12.9304C6.81039 12.9304 6.62404 12.881 6.45925 12.7873L6.21658 12.6461L5.91325 12.4594L5.80125 12.3865L5.56208 12.2273C4.9134 11.7882 4.30912 11.2869 3.75783 10.7304C2.72767 9.67633 1.75 8.20983 1.75 6.41667C1.75 5.02428 2.30312 3.68892 3.28769 2.70436C4.27226 1.71979 5.60761 1.16667 7 1.16667ZM7 2.33333C5.91703 2.33333 4.87842 2.76354 4.11265 3.52931C3.34687 4.29509 2.91667 5.3337 2.91667 6.41667C2.91667 7.77117 3.65867 8.96 4.59142 9.91433C4.99253 10.3203 5.42602 10.6929 5.88758 11.0285L6.15475 11.2187C6.24108 11.2788 6.32392 11.3348 6.40383 11.3867L6.63133 11.5325L6.83142 11.6544L7 11.753L7.26542 11.5961L7.4795 11.4619C7.59325 11.3896 7.71575 11.3085 7.84525 11.2187L8.11242 11.0285C8.57398 10.6929 9.00747 10.3203 9.40858 9.91433C10.3413 8.96058 11.0833 7.77117 11.0833 6.41667C11.0833 5.3337 10.6531 4.29509 9.88735 3.52931C9.12158 2.76354 8.08297 2.33333 7 2.33333ZM7 4.08333C7.61884 4.08333 8.21233 4.32917 8.64992 4.76675C9.0875 5.20434 9.33333 5.79783 9.33333 6.41667C9.33333 7.03551 9.0875 7.629 8.64992 8.06658C8.21233 8.50417 7.61884 8.75 7 8.75C6.38116 8.75 5.78767 8.50417 5.35008 8.06658C4.9125 7.629 4.66667 7.03551 4.66667 6.41667C4.66667 5.79783 4.9125 5.20434 5.35008 4.76675C5.78767 4.32917 6.38116 4.08333 7 4.08333ZM7 5.25C6.69058 5.25 6.39383 5.37292 6.17504 5.59171C5.95625 5.8105 5.83333 6.10725 5.83333 6.41667C5.83333 6.72609 5.95625 7.02283 6.17504 7.24163C6.39383 7.46042 6.69058 7.58333 7 7.58333C7.30942 7.58333 7.60616 7.46042 7.82496 7.24163C8.04375 7.02283 8.16667 6.72609 8.16667 6.41667C8.16667 6.10725 8.04375 5.8105 7.82496 5.59171C7.60616 5.37292 7.30942 5.25 7 5.25Z" fill="#4B4B4B"/>
</g>
<defs>
<clipPath id="clip0_39_964">
<rect width="14" height="14" fill="white"/>
</clipPath>
</defs>
</svg>
