<svg width="25" height="25" viewBox="0 0 25 25" fill="none" xmlns="http://www.w3.org/2000/svg">
<path d="M9.75005 7.93751C10.45 7.93751 11.0125 7.37501 11.0125 6.67501C11.0125 5.97501 10.45 5.41251 9.75005 5.41251C9.05005 5.41251 8.48755 5.97501 8.48755 6.67501C8.48755 7.37501 9.05005 7.93751 9.75005 7.93751Z" fill="white"/>
<path fill-rule="evenodd" clip-rule="evenodd" d="M12.2875 10.6875C12.2875 9.33749 11.15 8.36249 9.75 8.36249C8.35 8.36249 7.2125 9.33749 7.2125 10.6875V11.325C7.2125 11.4375 7.2625 11.55 7.3375 11.625C7.4125 11.7 7.525 11.75 7.6375 11.75H11.8625C11.975 11.75 12.0875 11.7 12.1625 11.625C12.2375 11.55 12.2875 11.4375 12.2875 11.325V10.6875ZM7.1875 14.375C7.1875 14.1263 7.28627 13.8879 7.46209 13.7121C7.6379 13.5363 7.87636 13.4375 8.125 13.4375H16.875C17.1236 13.4375 17.3621 13.5363 17.5379 13.7121C17.7137 13.8879 17.8125 14.1263 17.8125 14.375C17.8125 14.6236 17.7137 14.8621 17.5379 15.0379C17.3621 15.2137 17.1236 15.3125 16.875 15.3125H8.125C7.87636 15.3125 7.6379 15.2137 7.46209 15.0379C7.28627 14.8621 7.1875 14.6236 7.1875 14.375ZM7.1875 18.125C7.1875 17.8763 7.28627 17.6379 7.46209 17.4621C7.6379 17.2863 7.87636 17.1875 8.125 17.1875H16.875C17.1236 17.1875 17.3621 17.2863 17.5379 17.4621C17.7137 17.6379 17.8125 17.8763 17.8125 18.125C17.8125 18.3736 17.7137 18.6121 17.5379 18.7879C17.3621 18.9637 17.1236 19.0625 16.875 19.0625H8.125C7.87636 19.0625 7.6379 18.9637 7.46209 18.7879C7.28627 18.6121 7.1875 18.3736 7.1875 18.125Z" fill="white"/>
<path fill-rule="evenodd" clip-rule="evenodd" d="M3.125 3.125C3.125 1.7475 4.2475 0.625 5.625 0.625H13.9875C14.69 0.625 15.3525 0.9225 15.8187 1.41375L15.8263 1.4225L21.2162 7.3C21.665 7.77875 21.875 8.405 21.875 9V21.875C21.875 23.2525 20.7525 24.375 19.375 24.375H5.625C4.2475 24.375 3.125 23.2525 3.125 21.875V3.125ZM13.9862 3.125H5.625V21.875H19.375V8.99L14.005 3.13375L14.0013 3.1325C13.9967 3.12919 13.9916 3.12666 13.9862 3.125Z" fill="white"/>
<path fill-rule="evenodd" clip-rule="evenodd" d="M13.9875 0.625C14.3191 0.625 14.637 0.756696 14.8714 0.991117C15.1059 1.22554 15.2375 1.54348 15.2375 1.875V7.75H20.625C20.7892 7.75 20.9517 7.78233 21.1034 7.84515C21.2551 7.90797 21.3929 8.00004 21.5089 8.11612C21.625 8.23219 21.7171 8.36999 21.7799 8.52165C21.8427 8.6733 21.875 8.83585 21.875 9C21.875 9.16415 21.8427 9.3267 21.7799 9.47835C21.7171 9.63001 21.625 9.76781 21.5089 9.88388C21.3929 9.99996 21.2551 10.092 21.1034 10.1548C20.9517 10.2177 20.7892 10.25 20.625 10.25H13.9875C13.656 10.25 13.3381 10.1183 13.1037 9.88388C12.8692 9.64946 12.7375 9.33152 12.7375 9V1.875C12.7375 1.54348 12.8692 1.22554 13.1037 0.991117C13.3381 0.756696 13.656 0.625 13.9875 0.625Z" fill="white"/>
</svg>
