<svg width="6" height="10" viewBox="0 0 6 10" fill="none" xmlns="http://www.w3.org/2000/svg">
<path d="M2.937 0.848999C3.72167 0.848999 4.34867 1.05433 4.818 1.465C5.29467 1.87567 5.533 2.455 5.533 3.203C5.533 3.89233 5.30567 4.43133 4.851 4.82C4.40367 5.20133 3.80967 5.39567 3.069 5.403L3.014 6.228H1.364L1.309 4.182H1.969C2.53367 4.182 2.96267 4.11233 3.256 3.973C3.55667 3.83367 3.707 3.58067 3.707 3.214C3.707 2.95733 3.63733 2.75567 3.498 2.609C3.35867 2.46233 3.16433 2.389 2.915 2.389C2.651 2.389 2.44567 2.466 2.299 2.62C2.15233 2.76667 2.079 2.96833 2.079 3.225H0.308C0.293333 2.77767 0.385 2.37433 0.583 2.015C0.788333 1.65567 1.089 1.37333 1.485 1.168C1.88833 0.955333 2.37233 0.848999 2.937 0.848999ZM2.211 9.088C1.881 9.088 1.60967 8.99267 1.397 8.802C1.19167 8.604 1.089 8.362 1.089 8.076C1.089 7.78267 1.19167 7.537 1.397 7.339C1.60967 7.141 1.881 7.042 2.211 7.042C2.53367 7.042 2.79767 7.141 3.003 7.339C3.21567 7.537 3.322 7.78267 3.322 8.076C3.322 8.362 3.21567 8.604 3.003 8.802C2.79767 8.99267 2.53367 9.088 2.211 9.088Z" fill="#6135FE"/>
</svg>
