<svg width="16" height="16" viewBox="0 0 16 16" fill="none" xmlns="http://www.w3.org/2000/svg">
<path fill-rule="evenodd" clip-rule="evenodd" d="M9.5193 1.43468C9.27263 1.33334 8.9593 1.33334 8.3333 1.33334C7.7073 1.33334 7.39397 1.33334 7.1473 1.43468C6.81893 1.56948 6.55755 1.82919 6.42063 2.15668C6.35797 2.30534 6.33397 2.47934 6.32397 2.73201C6.31952 2.91508 6.26846 3.09399 6.1756 3.25182C6.08274 3.40966 5.95116 3.5412 5.7933 3.63401C5.63246 3.72341 5.45166 3.77077 5.26765 3.77171C5.08364 3.77264 4.90237 3.72711 4.74063 3.63934C4.5153 3.52068 4.35197 3.45534 4.19063 3.43401C3.83767 3.38767 3.48068 3.48254 3.1973 3.69801C2.9853 3.85934 2.82863 4.12868 2.51597 4.66668C2.20263 5.20468 2.04663 5.47334 2.0113 5.73668C1.96463 6.08734 2.06063 6.44201 2.27797 6.72268C2.37663 6.85068 2.51597 6.95801 2.7313 7.09268C3.0493 7.29068 3.2533 7.62801 3.2533 8.00001C3.2533 8.37201 3.0493 8.70934 2.73197 8.90668C2.51597 9.04201 2.37663 9.14934 2.2773 9.27734C2.17002 9.41597 2.09128 9.57448 2.04562 9.74372C1.99997 9.91296 1.9883 10.0896 2.0113 10.2633C2.04663 10.526 2.20263 10.7953 2.51597 11.3333C2.8293 11.8713 2.9853 12.14 3.1973 12.302C3.47997 12.5173 3.8373 12.612 4.19063 12.566C4.35197 12.5447 4.5153 12.4793 4.74063 12.3607C4.90245 12.2728 5.08384 12.2272 5.26798 12.2281C5.45213 12.2291 5.63305 12.2765 5.79397 12.366C6.11797 12.5527 6.30997 12.896 6.32397 13.268C6.33397 13.5213 6.35797 13.6947 6.42063 13.8433C6.55663 14.17 6.81797 14.43 7.1473 14.5653C7.39397 14.6667 7.7073 14.6667 8.3333 14.6667C8.9593 14.6667 9.27263 14.6667 9.5193 14.5653C9.84767 14.4305 10.109 14.1708 10.246 13.8433C10.3086 13.6947 10.3326 13.5213 10.3426 13.268C10.356 12.896 10.5486 12.552 10.8733 12.366C11.0341 12.2766 11.2149 12.2292 11.3989 12.2283C11.583 12.2274 11.7642 12.2729 11.926 12.3607C12.1513 12.4793 12.3146 12.5447 12.476 12.566C12.8293 12.6127 13.1866 12.5173 13.4693 12.302C13.6813 12.1407 13.838 11.8713 14.1506 11.3333C14.464 10.7953 14.62 10.5267 14.6553 10.2633C14.6782 10.0895 14.6664 9.91289 14.6207 9.74365C14.5749 9.57441 14.496 9.41592 14.3886 9.27734C14.29 9.14934 14.1506 9.04201 13.9353 8.90734C13.6173 8.70934 13.4133 8.37201 13.4133 8.00001C13.4133 7.62801 13.6173 7.29068 13.9346 7.09334C14.1506 6.95801 14.29 6.85068 14.3893 6.72268C14.4966 6.58405 14.5753 6.42554 14.621 6.2563C14.6666 6.08706 14.6783 5.91045 14.6553 5.73668C14.62 5.47401 14.464 5.20468 14.1506 4.66668C13.8373 4.12868 13.6813 3.86001 13.4693 3.69801C13.1859 3.48254 12.8289 3.38767 12.476 3.43401C12.3146 3.45534 12.1513 3.52068 11.926 3.63934C11.7641 3.72723 11.5828 3.77282 11.3986 3.77189C11.2145 3.77096 11.0336 3.72353 10.8726 3.63401C10.7149 3.54112 10.5834 3.40954 10.4907 3.25171C10.398 3.09388 10.347 2.91502 10.3426 2.73201C10.3326 2.47868 10.3086 2.30534 10.246 2.15668C10.1782 1.9945 10.0791 1.84727 9.95446 1.72338C9.82978 1.5995 9.68191 1.5014 9.5193 1.43468ZM8.3333 10C9.44663 10 10.3486 9.10468 10.3486 8.00001C10.3486 6.89534 9.44597 6.00001 8.3333 6.00001C7.21997 6.00001 6.31797 6.89534 6.31797 8.00001C6.31797 9.10468 7.22063 10 8.3333 10Z" fill="white"/>
</svg>
