<svg width="14" height="14" viewBox="0 0 14 14" fill="none" xmlns="http://www.w3.org/2000/svg">
<path d="M4.66667 4.08333V2.91667C4.66667 2.60725 4.78958 2.3105 5.00838 2.09171C5.22717 1.87292 5.52391 1.75 5.83333 1.75H8.16667C8.47609 1.75 8.77283 1.87292 8.99162 2.09171C9.21042 2.3105 9.33333 2.60725 9.33333 2.91667V4.08333M7 7V7.00583M1.75 5.25C1.75 4.94058 1.87292 4.64383 2.09171 4.42504C2.3105 4.20625 2.60725 4.08333 2.91667 4.08333H11.0833C11.3928 4.08333 11.6895 4.20625 11.9083 4.42504C12.1271 4.64383 12.25 4.94058 12.25 5.25V10.5C12.25 10.8094 12.1271 11.1062 11.9083 11.325C11.6895 11.5438 11.3928 11.6667 11.0833 11.6667H2.91667C2.60725 11.6667 2.3105 11.5438 2.09171 11.325C1.87292 11.1062 1.75 10.8094 1.75 10.5V5.25Z" stroke="#4B4B4B" stroke-width="1.2" stroke-linecap="round" stroke-linejoin="round"/>
<path d="M1.75 7.58333C3.37842 8.4039 5.17652 8.83133 7 8.83133C8.82348 8.83133 10.6216 8.4039 12.25 7.58333" stroke="#4B4B4B" stroke-width="1.2" stroke-linecap="round" stroke-linejoin="round"/>
</svg>
